<svg width="310" height="112" viewBox="0 0 310 112" fill="none" xmlns="http://www.w3.org/2000/svg" role="img" aria-label="Bomly">
  <title>Bomly</title>
  <style>
    .wm { fill: #0D0D0D; font-family: "JetBrains Mono", "Geist Mono", ui-monospace, "SFMono-Regular", Menlo, monospace; font-weight: 700; }
    .sub { fill: #4A423A; font-family: "JetBrains Mono", "Geist Mono", ui-monospace, "SFMono-Regular", Menlo, monospace; font-weight: 600; }
    @media (prefers-color-scheme: dark) {
      .wm { fill: #F2EFE9; }
      .sub { fill: #D6CFC5; }
    }
  </style>

  <g transform="translate(10 16)">
    <rect x="0" y="0" width="80" height="80" rx="18" fill="#E89B5C"/>
    <svg x="8" y="8" width="64" height="64" viewBox="0 0 512 512" aria-hidden="true">
      <path stroke="#0D0D0D" stroke-width="4" d="M0 0 C1.25904406 -0.00644889 2.51808812 -0.01289778 3.81528503 -0.0195421 C5.20995232 -0.01659991 6.60461922 -0.01346448 7.9992857 -0.01015663 C9.48282992 -0.0138932 10.96637217 -0.01849475 12.4499113 -0.02388728 C16.52775877 -0.03613194 20.6055243 -0.03585509 24.68338597 -0.03349853 C29.08091475 -0.03309073 33.47841713 -0.04412595 37.87593365 -0.05361366 C46.4919902 -0.07023268 55.10801938 -0.07572362 63.72409061 -0.07683842 C70.72714918 -0.07778847 77.73019872 -0.0818966 84.73325443 -0.08823967 C104.5847032 -0.10585455 124.43613033 -0.11507816 144.28758696 -0.11357872 C145.89317137 -0.11345885 145.89317137 -0.11345885 147.53119183 -0.11333656 C148.60288715 -0.1132548 149.67458248 -0.11317304 150.77875342 -0.1130888 C168.14862487 -0.11227583 185.51840962 -0.13141559 202.88825599 -0.1596133 C220.72005478 -0.18833269 238.55181128 -0.20215411 256.38363379 -0.20042574 C266.39622895 -0.19976152 276.40873322 -0.20526819 286.42130756 -0.22678185 C294.94608999 -0.24498121 303.47074032 -0.24935122 311.99553374 -0.235763 C316.34489936 -0.22922705 320.69401148 -0.22913867 325.04335308 -0.2464695 C329.02645452 -0.26217772 333.00910097 -0.25935987 336.99219116 -0.24190123 C338.43161126 -0.23882635 339.87106512 -0.24248219 341.31044541 -0.25362138 C350.38905523 -0.31921563 356.88415996 0.0504785 363.99188519 6.15180016 C364.52168987 6.78472984 365.05149456 7.41765953 365.59735394 8.06976891 C366.14004925 8.69496422 366.68274456 9.32015953 367.24188519 9.96430016 C371.10003769 15.6978078 372.22709439 20.61608282 372.14561749 27.46404076 C372.14818076 28.26223089 372.15074403 29.06042102 372.15338498 29.88279873 C372.15830412 32.54225518 372.14186116 35.20113674 372.12543011 37.86054039 C372.12458343 39.77287851 372.12505977 41.68521761 372.12675762 43.59755516 C372.12761741 48.77887936 372.10999419 53.95999468 372.08903575 59.1412704 C372.07026629 64.55981366 372.06851829 69.97836185 372.06495953 75.3969326 C372.05563987 85.65320973 372.0310271 95.90939078 372.00091106 106.16562563 C371.96736463 117.84390774 371.95088042 129.52219446 371.93582475 141.20051277 C371.90447752 165.21948472 371.8517185 189.23837143 371.78485394 213.25726891 C372.37065731 213.24838646 372.95646069 213.23950401 373.56001568 213.2303524 C379.67595917 213.14162269 385.79171878 213.08142859 391.90814495 213.03754234 C394.18849399 213.0174697 396.46879182 212.99020547 398.74896526 212.95551109 C402.03319236 212.90680282 405.31673685 212.88425605 408.60126019 212.86664391 C409.61507259 212.84599876 410.628885 212.82535362 411.673419 212.80408287 C417.94305811 212.8021107 421.69674194 213.5058964 426.78485394 217.25726891 C428.53428216 219.41330233 429.91750408 221.65687398 431.28485394 224.06976891 C438.32533494 235.63223327 447.01514784 242.53979862 460.13251019 246.69086266 C462.99873432 247.30294292 465.84847312 247.59177409 468.76410198 247.86493492 C480.02123664 248.93954363 480.02123664 248.93954363 484.62079144 253.52680016 C488.02148084 258.58218742 488.0770566 263.26633579 488.05951214 269.15228844 C488.06462307 270.03933464 488.069734 270.92638084 488.07499981 271.84030724 C488.08889658 274.77363409 488.08793676 277.70672551 488.08563519 280.64008141 C488.08952647 282.69492237 488.09386203 284.74976253 488.09862041 286.80460167 C488.10608605 291.12039347 488.10579206 295.43610352 488.10052776 299.75189781 C488.09477982 305.2305982 488.11154824 310.70895535 488.13487244 316.18759918 C488.14976208 320.43981383 488.15046022 324.69194915 488.14736271 328.94418526 C488.14786988 330.96039946 488.15299157 332.97661884 488.16317463 334.99280739 C488.23667164 351.60269677 486.88810107 367.77135508 482.09735394 383.75726891 C481.84316692 384.62126305 481.58897991 385.48525719 481.32709026 386.37543297 C474.95351411 407.30655466 465.10575977 426.91764343 451.78485394 444.25726891 C451.11325237 445.15316734 450.44165081 446.04906578 449.74969769 446.97211266 C430.80703214 471.24354346 406.26769572 487.34465557 379.861377 502.4413951 C377.7791376 503.67040717 375.73036472 504.95763746 373.71624827 506.29536933 C364.81548815 511.95921846 357.81187374 513.41097524 347.15991497 513.25295067 C345.63288835 513.26003751 344.10587473 513.27062083 342.57889342 513.28435439 C338.42210476 513.31170978 334.2668728 513.28978007 330.1101625 513.25908911 C325.61250125 513.23467399 321.11502419 513.25670415 316.61735821 513.27269554 C307.8231835 513.29663482 299.02959963 513.27795057 290.23547658 513.24431936 C279.98658815 513.20657881 269.73783509 513.2100493 259.48889336 513.2147586 C241.20054357 513.22162901 222.91247213 513.18921244 204.6242094 513.13544273 C186.89073409 513.08332173 169.15756322 513.0621042 151.42401409 513.0739193 C132.09246573 513.08674771 112.76104713 513.08409016 93.42951465 513.05307406 C91.89557736 513.05061674 91.89557736 513.05061674 90.33065145 513.04810977 C88.2769837 513.04481907 86.22331601 513.04149731 84.16964836 513.03814409 C77.03026521 513.02738191 69.8909253 513.02709052 62.75153637 513.03044128 C54.0509228 513.03400684 45.35056409 513.01904144 36.65002999 512.98088137 C32.21325215 512.96180925 27.77683533 512.95055144 23.34002018 512.9609623 C19.27500073 512.97024073 15.21073561 512.95626214 11.14583918 512.92406162 C9.67908341 512.91642245 8.21225463 512.91708856 6.74551323 512.92711506 C-1.87875752 512.98049543 -9.07342107 512.48116981 -16.21514606 507.25726891 C-22.25341806 500.8595201 -24.52022184 495.03540352 -24.47520828 486.23609447 C-24.47901395 485.42965534 -24.48281962 484.62321621 -24.48674062 483.79233953 C-24.49708061 481.07899064 -24.49314578 478.36585001 -24.48930073 475.6524868 C-24.49375183 473.6918914 -24.49906545 471.73129779 -24.50516945 469.77070683 C-24.51937532 464.37414677 -24.52101225 458.97764424 -24.52057254 453.58106816 C-24.52221848 447.76426569 -24.53528081 441.94748707 -24.54676533 436.13069725 C-24.56963194 423.4075875 -24.57753773 410.68449441 -24.58259177 397.96136689 C-24.58584687 390.01878628 -24.59236822 382.07621053 -24.59959316 374.13363266 C-24.61916129 352.14797472 -24.63564553 330.16232111 -24.6384697 308.17665386 C-24.63856376 307.47339464 -24.63865782 306.77013542 -24.63875473 306.04556532 C-24.63913321 303.19555775 -24.63949721 300.34555018 -24.63985771 297.49554261 C-24.64012943 295.35044422 -24.64040611 293.20534582 -24.64068317 291.06024742 C-24.6407712 290.35142432 -24.64085922 289.64260122 -24.64094991 288.91229863 C-24.64385498 266.64354199 -24.66594722 244.37487217 -24.70220661 222.10614586 C-24.74294022 197.08891879 -24.76662832 172.07175088 -24.76692921 147.05448884 C-24.7674099 133.80794822 -24.77603258 120.56151462 -24.80492687 107.31500244 C-24.82941626 96.03592262 -24.83674008 84.75699528 -24.82167935 73.47789607 C-24.81450053 67.7227286 -24.81541014 61.96786238 -24.83808994 56.2127285 C-24.85865859 50.94283736 -24.85609891 45.67347951 -24.8352151 40.40359428 C-24.8317162 38.49846004 -24.83664708 36.59328748 -24.85091954 34.68820349 C-24.98493139 15.56593014 -24.98493139 15.56593014 -19.21514606 8.25726891 C-13.43963561 2.85209944 -8.01517619 0.01038496 0 0 Z M5.78485394 30.25726891 C5.78485394 179.41726891 5.78485394 328.57726891 5.78485394 482.25726891 C103.13485394 482.25726891 200.48485394 482.25726891 300.78485394 482.25726891 C297.56749905 479.03991402 294.61487314 476.59762252 290.97235394 473.94476891 C254.75317049 446.66872195 232.09091102 402.64562456 225.78485394 358.25726891 C224.7840992 350.70263529 224.57129265 343.24018994 224.46844769 335.62445641 C224.44766659 334.31558464 224.42688549 333.00671288 224.40547466 331.65817833 C224.36174022 328.88964583 224.32082401 326.12109174 224.28216839 323.35248375 C224.23360086 319.87789865 224.17983062 316.40342058 224.12423038 312.92894173 C224.00732114 305.60572148 223.9091924 298.28251673 223.82751751 290.95880699 C223.79976502 288.55097055 223.76888634 286.14316742 223.73437786 283.73541832 C223.69011749 280.55781327 223.65920631 277.38037581 223.63251019 274.20258141 C223.61739895 273.28693413 223.60228771 272.37128685 223.58671856 271.42789268 C223.55527235 264.97641406 223.85079546 259.60950219 228.09735394 254.44476891 C232.03017421 251.50469938 236.52688091 251.35870007 241.27704144 250.76898766 C255.57126938 248.6837495 267.62828722 242.51506269 276.78485394 231.25726891 C278.65511361 228.21043194 280.37041285 225.14628036 281.98407269 221.95648766 C283.78485394 219.25726891 283.78485394 219.25726891 289.78485394 215.25726891 C315.02985394 214.76226891 315.02985394 214.76226891 340.78485394 214.25726891 C340.78485394 153.53726891 340.78485394 92.81726891 340.78485394 30.25726891 C230.23485394 30.25726891 119.68485394 30.25726891 5.78485394 30.25726891 Z M325.36135006 244.18728733 C322.1638798 244.15679499 318.96675148 244.18237867 315.76922894 244.19867516 C314.08074841 244.15661194 314.08074841 244.15661194 312.35815716 244.11369896 C306.45149873 244.18526754 306.45149873 244.18526754 301.58197308 247.21744347 C299.79670698 249.48962917 298.27645771 251.78548993 296.78485394 254.25726891 C293.47694355 258.71573475 289.80587648 262.09109697 285.28485394 265.25726891 C284.67536907 265.68660728 284.06588421 266.11594566 283.43793011 266.5582943 C275.85103687 271.75953219 267.95468272 275.44631731 259.07074261 277.83563805 C257.58570484 278.23632248 257.58570484 278.23632248 256.07066631 278.64510155 C255.31634823 278.84711678 254.56203014 279.049132 253.78485394 279.25726891 C253.8467113 287.79544416 253.92426177 296.33328544 254.02056885 304.87113476 C254.06484705 308.83779656 254.10418962 312.80436561 254.13128948 316.77118492 C254.28102767 346.91191679 254.28102767 346.91191679 260.47235394 376.31976891 C260.8547221 377.54808434 260.8547221 377.54808434 261.24481487 378.80121422 C267.54463755 398.3630292 277.20760434 415.80563795 290.78485394 431.25726891 C291.50286175 432.09644859 292.22086956 432.93562828 292.96063519 433.80023766 C306.90577671 449.77646552 323.36817548 460.46485012 341.59735394 470.88226891 C342.22688976 471.24209862 342.85642559 471.60192833 343.50503826 471.97266197 C350.42459793 476.09167044 350.42459793 476.09167044 357.78485394 479.25726891 C360.68245264 477.98789542 360.68245264 477.98789542 363.85907269 476.05805016 C364.75376766 475.53873672 364.75376766 475.53873672 365.66653728 475.00893211 C367.60929886 473.87476468 369.54137257 472.72386465 371.47235394 471.56976891 C372.12968517 471.18045189 372.78701641 470.79113487 373.46426678 470.39002037 C412.58160337 447.18718246 441.70210816 414.80009546 453.3507719 370.08490562 C455.47814618 361.36667704 456.91395438 352.74822327 456.89837933 343.7614193 C456.89859837 342.69187004 456.89859837 342.69187004 456.89882183 341.60071373 C456.89813106 339.2687521 456.89037823 336.93687265 456.88251019 334.60492516 C456.88064303 332.97825222 456.87922053 331.35157872 456.87822247 329.72490501 C456.87442071 325.46211737 456.86461061 321.19936427 456.85351849 316.93659019 C456.84325383 312.57929514 456.83871405 308.22199446 456.83368206 303.86469078 C456.82298607 295.32886771 456.80593802 286.79307262 456.78485394 278.25726891 C455.63742718 277.86257408 454.49000042 277.46787926 453.30780315 277.06122398 C451.77664134 276.52913059 450.24555827 275.99681056 448.71454144 275.46430016 C447.9613261 275.20588341 447.20811077 274.94746666 446.43207073 274.6812191 C430.84019706 269.2379771 414.44052019 259.56860141 406.78485394 244.25726891 C397.48965279 244.23374445 388.19446241 244.21615521 378.89923763 244.20545673 C374.57968602 244.20031323 370.26015526 244.19337819 365.94061565 244.18182945 C356.86299838 244.15867892 347.78656041 244.16216148 338.70910168 244.22697067 C334.25860277 244.25599723 329.81156283 244.24347409 325.36135006 244.18728733 Z " fill="#000000" transform="translate(24.2151460647583,-0.25726890563964844)"/>
      <path stroke="#0D0D0D" stroke-width="4" d="M0 0 C0.79724479 -0.00384115 1.59448959 -0.00768229 2.41589332 -0.01163983 C3.72093515 -0.01034011 3.72093515 -0.01034011 5.05234146 -0.00901413 C5.98116457 -0.01198525 6.90998768 -0.01495637 7.86695695 -0.01801753 C10.98672391 -0.02670563 14.10645251 -0.02821288 17.22623062 -0.02970505 C19.46011818 -0.03433314 21.69400494 -0.03935779 23.92789078 -0.04475021 C30.0023772 -0.05787704 36.07685258 -0.06431973 42.15135098 -0.06876087 C45.94586651 -0.07169113 49.74037902 -0.07579585 53.53489304 -0.08026505 C64.04524323 -0.09237375 74.55559163 -0.10275585 85.06594849 -0.10614014 C85.73841087 -0.1063597 86.41087326 -0.10657927 87.10371329 -0.10680549 C87.77776536 -0.10702377 88.45181742 -0.10724204 89.14629531 -0.10746694 C90.51213312 -0.1079104 91.87797093 -0.10835696 93.24380875 -0.10880661 C93.92130842 -0.10902804 94.5988081 -0.10924947 95.29683807 -0.10947761 C106.27137188 -0.11342447 117.24583923 -0.13087566 128.22034737 -0.15416613 C139.49351743 -0.17789689 150.76665533 -0.19008494 162.03985429 -0.19150805 C168.36699012 -0.19255647 174.69403223 -0.19847211 181.02114487 -0.21632767 C186.973539 -0.23279881 192.92576885 -0.2349684 198.87817764 -0.22618866 C201.06145289 -0.22541778 203.24473693 -0.22976769 205.42798996 -0.23964691 C208.41169331 -0.25235508 211.39481387 -0.24649548 214.37851334 -0.23606491 C215.23961834 -0.24412132 216.10072334 -0.25217772 216.98792243 -0.26047826 C223.55140668 -0.20692665 229.5114522 0.67348528 234.34439468 5.50642776 C237.50829442 10.61734272 238.36600999 13.96558528 237.50455093 19.91658401 C236.40574669 24.4641899 234.31924065 27.26226825 230.42265701 29.77126026 C225.95149414 31.53235741 222.1654891 31.55129612 217.40469742 31.51910782 C216.44825301 31.52449336 215.49180861 31.52987889 214.50638103 31.53542763 C211.30511886 31.54972226 208.1042693 31.54259967 204.90298843 31.5354805 C202.60644574 31.54118322 200.30990589 31.54814709 198.01337051 31.55627823 C191.77794381 31.57423425 185.54265764 31.57303676 179.30721283 31.56733584 C174.10318962 31.56424794 168.89919356 31.57033193 163.69517422 31.57637459 C150.71848469 31.59122931 137.74188326 31.58759948 124.76519525 31.57551128 C113.49841132 31.56557648 102.23179155 31.57852444 90.96503294 31.60244548 C79.39120434 31.62683305 67.81747088 31.63604554 56.24361515 31.62979275 C49.74776836 31.6264184 43.25205726 31.62887024 36.7562294 31.64604378 C30.64945013 31.66148399 24.54298499 31.65758958 18.43621826 31.63873863 C16.19405427 31.63504487 13.95186715 31.63818402 11.70972443 31.64862442 C8.65081576 31.66178153 5.59295519 31.6503331 2.53409195 31.63263321 C1.20072375 31.64704072 1.20072375 31.64704072 -0.15958118 31.66173929 C-5.60626417 31.59681594 -8.6994298 30.74304995 -13.03060532 27.13142776 C-16.5761421 23.09685142 -17.33999803 19.56176973 -17.24154282 14.18611526 C-16.75928601 9.48857671 -14.52726271 6.36185204 -11.09310532 3.31892776 C-7.29448061 0.6056244 -4.58791674 0.00832733 0 0 Z " fill="#000000" transform="translate(87.03060531616211,92.86857223510742)"/>
      <path stroke="#0D0D0D" stroke-width="4" d="M0 0 C3.99843778 2.5460138 6.08668387 5.53118833 7.45703125 10.05078125 C8.30150594 14.85984236 7.57085945 18.70954086 5.328125 23.1015625 C2.46791052 26.60532524 -0.64359681 29.718858 -3.87890625 32.875 C-5.91315387 34.90578212 -7.80558028 36.98019316 -9.671875 39.1640625 C-12.92352128 42.95764983 -16.42900594 46.43798897 -19.984375 49.9453125 C-21.96907842 51.95836882 -23.83284416 54.01852653 -25.671875 56.1640625 C-28.92232151 59.95625009 -32.42637069 63.43541781 -35.98046875 66.94140625 C-37.9865769 68.976122 -39.87301016 71.05991687 -41.734375 73.2265625 C-53.25891241 86.60038615 -53.25891241 86.60038615 -59.50390625 87.5 C-65.23268219 87.59021694 -69.74107438 87.09690617 -74.171875 83.1640625 C-77.03539207 79.97514577 -79.58708198 76.57985439 -82.171875 73.1640625 C-83.60166826 71.40776028 -85.03936301 69.65786484 -86.484375 67.9140625 C-90.0790364 63.52267859 -93.64241214 59.10793269 -97.171875 54.6640625 C-97.65309814 54.06432617 -98.13432129 53.46458984 -98.63012695 52.84667969 C-103.1993881 47.06405607 -103.9720822 42.38846836 -103.171875 35.1640625 C-100.84218569 30.32547702 -98.01046048 27.49375181 -93.171875 25.1640625 C-87.32358524 24.21673623 -83.06200024 24.71965427 -77.90942383 27.85351562 C-74.85100385 30.16033008 -72.72213236 33.0859387 -70.484375 36.1640625 C-69.56626828 37.39507235 -68.64574737 38.62428585 -67.72265625 39.8515625 C-67.07804443 40.71007812 -67.07804443 40.71007812 -66.42041016 41.5859375 C-64.82047443 43.60822623 -63.05221691 45.40261809 -61.171875 47.1640625 C-55.89693705 41.98464656 -50.7541575 36.77910815 -45.94921875 31.16015625 C-43.93918723 28.90273624 -41.82354547 26.78670537 -39.671875 24.6640625 C-36.9474596 21.9762779 -34.33927188 19.26589387 -31.859375 16.3515625 C-28.68834116 12.66570199 -25.33803383 9.18360281 -21.921875 5.7265625 C-21.40197998 5.19377686 -20.88208496 4.66099121 -20.34643555 4.11206055 C-14.84513269 -1.40354302 -7.45889712 -2.87087048 0 0 Z " fill="#000000" transform="translate(432.171875,314.8359375)"/>
      <path stroke="#0D0D0D" stroke-width="4" d="M0 0 C1.51807503 -0.01073296 1.51807503 -0.01073296 3.06681824 -0.02168274 C4.17130814 -0.02437164 5.27579803 -0.02706055 6.41375732 -0.02983093 C8.16563103 -0.03968773 8.16563103 -0.03968773 9.95289612 -0.04974365 C13.8210354 -0.06946749 17.68913588 -0.08113682 21.55731201 -0.09111023 C22.89194509 -0.09515983 24.22657797 -0.09927681 25.56121063 -0.10346031 C31.83282154 -0.12250045 38.10442077 -0.13673377 44.376055 -0.14507228 C51.60201793 -0.15483978 58.82767413 -0.18115113 66.05352902 -0.22157317 C71.64774619 -0.25178779 77.24187568 -0.2665462 82.83617282 -0.26985329 C86.17329157 -0.2721978 89.50982239 -0.28306852 92.84690094 -0.30631447 C96.57386178 -0.33066419 100.30002252 -0.32974792 104.02703857 -0.32279968 C105.67162804 -0.34201477 105.67162804 -0.34201477 107.34944153 -0.36161804 C115.11515605 -0.30892366 120.51787347 1.12961562 126.41668701 6.27217102 C129.03614716 11.0919777 129.77694845 16.07683917 128.38543701 21.43232727 C126.51870656 25.73707205 124.43025342 27.96185673 120.23468208 30.28512573 C115.57959221 32.06429091 110.63263231 31.69957891 105.71331787 31.66474915 C103.88281639 31.67526306 103.88281639 31.67526306 102.01533508 31.68598938 C98.68452222 31.70053293 95.35470909 31.69718915 92.0239532 31.68447304 C88.5300599 31.67430674 85.0362077 31.68374853 81.54231262 31.6900177 C75.67736185 31.69728265 69.81261296 31.68773589 63.94769287 31.6686554 C57.17592994 31.64687848 50.40464863 31.65394821 43.63289732 31.67596102 C37.80761573 31.69413597 31.98247878 31.69666349 26.15717798 31.68620634 C22.68280398 31.67998413 19.2086561 31.67910058 15.7342968 31.69235229 C11.86122914 31.70609463 7.9886975 31.68702683 4.11566162 31.66474915 C2.97003754 31.67284607 1.82441345 31.68094299 0.64407349 31.68928528 C-5.5524372 31.6232442 -9.32229356 31.33050686 -14.02081299 27.14717102 C-17.56634977 23.11259468 -18.3302057 19.57751298 -18.23175049 14.20185852 C-17.74949368 9.50431996 -15.51747038 6.37759529 -12.08331299 3.33467102 C-7.94588582 0.3793659 -5.00572858 0.02435829 0 0 Z " fill="#000000" transform="translate(88.02081298828125,212.8528289794922)"/>
      <path stroke="#0D0D0D" stroke-width="4" d="M0 0 C1.51807503 -0.01073296 1.51807503 -0.01073296 3.06681824 -0.02168274 C4.17130814 -0.02437164 5.27579803 -0.02706055 6.41375732 -0.02983093 C8.16563103 -0.03968773 8.16563103 -0.03968773 9.95289612 -0.04974365 C13.8210354 -0.06946749 17.68913588 -0.08113682 21.55731201 -0.09111023 C22.89194509 -0.09515983 24.22657797 -0.09927681 25.56121063 -0.10346031 C31.83282154 -0.12250045 38.10442077 -0.13673377 44.376055 -0.14507228 C51.60201793 -0.15483978 58.82767413 -0.18115113 66.05352902 -0.22157317 C71.64774619 -0.25178779 77.24187568 -0.2665462 82.83617282 -0.26985329 C86.17329157 -0.2721978 89.50982239 -0.28306852 92.84690094 -0.30631447 C96.57386178 -0.33066419 100.30002252 -0.32974792 104.02703857 -0.32279968 C105.67162804 -0.34201477 105.67162804 -0.34201477 107.34944153 -0.36161804 C115.11515605 -0.30892366 120.51787347 1.12961562 126.41668701 6.27217102 C129.03614716 11.0919777 129.77694845 16.07683917 128.38543701 21.43232727 C126.51870656 25.73707205 124.43025342 27.96185673 120.23468208 30.28512573 C115.57959221 32.06429091 110.63263231 31.69957891 105.71331787 31.66474915 C103.88281639 31.67526306 103.88281639 31.67526306 102.01533508 31.68598938 C98.68452222 31.70053293 95.35470909 31.69718915 92.0239532 31.68447304 C88.5300599 31.67430674 85.0362077 31.68374853 81.54231262 31.6900177 C75.67736185 31.69728265 69.81261296 31.68773589 63.94769287 31.6686554 C57.17592994 31.64687848 50.40464863 31.65394821 43.63289732 31.67596102 C37.80761573 31.69413597 31.98247878 31.69666349 26.15717798 31.68620634 C22.68280398 31.67998413 19.2086561 31.67910058 15.7342968 31.69235229 C11.86122914 31.70609463 7.9886975 31.68702683 4.11566162 31.66474915 C2.97003754 31.67284607 1.82441345 31.68094299 0.64407349 31.68928528 C-5.5524372 31.6232442 -9.32229356 31.33050686 -14.02081299 27.14717102 C-17.56634977 23.11259468 -18.3302057 19.57751298 -18.23175049 14.20185852 C-17.74949368 9.50431996 -15.51747038 6.37759529 -12.08331299 3.33467102 C-7.94588582 0.3793659 -5.00572858 0.02435829 0 0 Z " fill="#000000" transform="translate(88.02081298828125,152.8528289794922)"/>
      <path stroke="#0D0D0D" stroke-width="4" d="M0 0 C1.20068115 -0.00525696 2.4013623 -0.01051392 3.63842773 -0.01593018 C6.91948593 -0.02684784 10.20017919 -0.02432219 13.48123169 -0.01479292 C16.92174013 -0.00717518 20.36222493 -0.01424779 23.80273438 -0.01895142 C29.57947133 -0.02440284 35.35609306 -0.01723355 41.1328125 -0.00292969 C47.80280542 0.01339574 54.4725232 0.00810679 61.14250946 -0.0084089 C66.87858173 -0.02204134 72.61457136 -0.02393487 78.3506546 -0.0160929 C81.77247118 -0.011426 85.19415861 -0.01076429 88.6159668 -0.02070236 C92.4316671 -0.0283207 96.24683904 -0.01670616 100.0625 0 C101.19099365 -0.00607269 102.3194873 -0.01214539 103.48217773 -0.0184021 C109.87070342 0.03341676 114.73836006 0.38469253 119.67578125 4.88818359 C123.54117229 9.85243162 124.45714854 13.10618018 124.03125 19.38818359 C122.13797504 24.64728069 119.43341785 27.17826954 115.03125 30.38818359 C112.07548629 31.37343816 110.13771945 31.52061569 107.05476379 31.53535461 C106.02726013 31.54250992 104.99975647 31.54966522 103.94111633 31.55703735 C102.81432968 31.55972626 101.68754303 31.56241516 100.52661133 31.56518555 C98.74569595 31.57504234 98.74569595 31.57504234 96.92880249 31.58509827 C92.99030196 31.60484721 89.05181475 31.61650046 85.11328125 31.62646484 C83.75543383 31.63051354 82.39758662 31.6346305 81.03973961 31.63881493 C74.6581344 31.65786406 68.27654071 31.6720942 61.89491254 31.6804269 C54.53933074 31.69019086 47.18405054 31.71648917 39.82857496 31.75692779 C34.13671426 31.78714122 28.44493974 31.8019008 22.75300044 31.80520791 C19.35669514 31.80755297 15.96071213 31.81644128 12.56449318 31.84166908 C8.77037193 31.86601601 4.97703678 31.86510287 1.18286133 31.8581543 C0.06619583 31.87096436 -1.05046967 31.88377441 -2.20097351 31.89697266 C-8.55432507 31.85461821 -13.75759877 31.27843938 -18.96875 27.38818359 C-22.55387624 23.27528541 -23.68704263 19.09339692 -23.41796875 13.66552734 C-22.40852932 8.54810834 -19.92496788 4.70258714 -15.61181641 1.80453491 C-10.38939452 -0.22583821 -5.5567265 -0.02990207 0 0 Z " fill="#000000" transform="translate(92.96875,382.61181640625)"/>
      <path stroke="#0D0D0D" stroke-width="4" d="M0 0 C1.20068115 -0.00525696 2.4013623 -0.01051392 3.63842773 -0.01593018 C6.91948593 -0.02684784 10.20017919 -0.02432219 13.48123169 -0.01479292 C16.92174013 -0.00717518 20.36222493 -0.01424779 23.80273438 -0.01895142 C29.57947133 -0.02440284 35.35609306 -0.01723355 41.1328125 -0.00292969 C47.80280542 0.01339574 54.4725232 0.00810679 61.14250946 -0.0084089 C66.87858173 -0.02204134 72.61457136 -0.02393487 78.3506546 -0.0160929 C81.77247118 -0.011426 85.19415861 -0.01076429 88.6159668 -0.02070236 C92.4316671 -0.0283207 96.24683904 -0.01670616 100.0625 0 C101.19099365 -0.00607269 102.3194873 -0.01214539 103.48217773 -0.0184021 C109.87070342 0.03341676 114.73836006 0.38469253 119.67578125 4.88818359 C123.54117229 9.85243162 124.45714854 13.10618018 124.03125 19.38818359 C122.13797504 24.64728069 119.43341785 27.17826954 115.03125 30.38818359 C112.07548629 31.37343816 110.13771945 31.52061569 107.05476379 31.53535461 C106.02726013 31.54250992 104.99975647 31.54966522 103.94111633 31.55703735 C102.81432968 31.55972626 101.68754303 31.56241516 100.52661133 31.56518555 C98.74569595 31.57504234 98.74569595 31.57504234 96.92880249 31.58509827 C92.99030196 31.60484721 89.05181475 31.61650046 85.11328125 31.62646484 C83.75543383 31.63051354 82.39758662 31.6346305 81.03973961 31.63881493 C74.6581344 31.65786406 68.27654071 31.6720942 61.89491254 31.6804269 C54.53933074 31.69019086 47.18405054 31.71648917 39.82857496 31.75692779 C34.13671426 31.78714122 28.44493974 31.8019008 22.75300044 31.80520791 C19.35669514 31.80755297 15.96071213 31.81644128 12.56449318 31.84166908 C8.77037193 31.86601601 4.97703678 31.86510287 1.18286133 31.8581543 C0.06619583 31.87096436 -1.05046967 31.88377441 -2.20097351 31.89697266 C-8.55432507 31.85461821 -13.75759877 31.27843938 -18.96875 27.38818359 C-22.55387624 23.27528541 -23.68704263 19.09339692 -23.41796875 13.66552734 C-22.40852932 8.54810834 -19.92496788 4.70258714 -15.61181641 1.80453491 C-10.38939452 -0.22583821 -5.5567265 -0.02990207 0 0 Z " fill="#000000" transform="translate(92.96875,322.61181640625)"/>
      <path stroke="#0D0D0D" stroke-width="4" d="M0 0 C1.20068115 -0.00525696 2.4013623 -0.01051392 3.63842773 -0.01593018 C6.91948593 -0.02684784 10.20017919 -0.02432219 13.48123169 -0.01479292 C16.92174013 -0.00717518 20.36222493 -0.01424779 23.80273438 -0.01895142 C29.57947133 -0.02440284 35.35609306 -0.01723355 41.1328125 -0.00292969 C47.80280542 0.01339574 54.4725232 0.00810679 61.14250946 -0.0084089 C66.87858173 -0.02204134 72.61457136 -0.02393487 78.3506546 -0.0160929 C81.77247118 -0.011426 85.19415861 -0.01076429 88.6159668 -0.02070236 C92.4316671 -0.0283207 96.24683904 -0.01670616 100.0625 0 C101.19099365 -0.00607269 102.3194873 -0.01214539 103.48217773 -0.0184021 C110.81108512 0.04104443 115.32586053 0.86315342 120.84375 6.01318359 C123.74379412 9.79544178 124.30124585 13.7000739 124.03125 18.38818359 C122.36303897 24.27598724 119.8702166 26.96058225 115.03125 30.38818359 C112.07548629 31.37343816 110.13771945 31.52061569 107.05476379 31.53535461 C106.02726013 31.54250992 104.99975647 31.54966522 103.94111633 31.55703735 C102.81432968 31.55972626 101.68754303 31.56241516 100.52661133 31.56518555 C98.74569595 31.57504234 98.74569595 31.57504234 96.92880249 31.58509827 C92.99030196 31.60484721 89.05181475 31.61650046 85.11328125 31.62646484 C83.75543383 31.63051354 82.39758662 31.6346305 81.03973961 31.63881493 C74.6581344 31.65786406 68.27654071 31.6720942 61.89491254 31.6804269 C54.53933074 31.69019086 47.18405054 31.71648917 39.82857496 31.75692779 C34.13671426 31.78714122 28.44493974 31.8019008 22.75300044 31.80520791 C19.35669514 31.80755297 15.96071213 31.81644128 12.56449318 31.84166908 C8.77037193 31.86601601 4.97703678 31.86510287 1.18286133 31.8581543 C0.06619583 31.87096436 -1.05046967 31.88377441 -2.20097351 31.89697266 C-8.55432507 31.85461821 -13.75759877 31.27843938 -18.96875 27.38818359 C-22.55387624 23.27528541 -23.68704263 19.09339692 -23.41796875 13.66552734 C-22.40852932 8.54810834 -19.92496788 4.70258714 -15.61181641 1.80453491 C-10.38939452 -0.22583821 -5.5567265 -0.02990207 0 0 Z " fill="#000000" transform="translate(92.96875,272.61181640625)"/>
    </svg>
  </g>

  <text class="wm" x="112" y="55" font-size="40">Bomly</text>
  <text class="sub" x="114" y="84" font-size="19">SBOM Analysis</text>
</svg>
