<svg width="310" height="112" viewBox="0 0 310 112" fill="none" xmlns="http://www.w3.org/2000/svg" role="img" aria-label="Bomly">
  <title>Bomly</title>
  <style>
    .wm { fill: #0D0D0D; font-family: "JetBrains Mono", "Geist Mono", ui-monospace, "SFMono-Regular", Menlo, monospace; font-weight: 700; }
    .sub { fill: #4A423A; font-family: "JetBrains Mono", "Geist Mono", ui-monospace, "SFMono-Regular", Menlo, monospace; font-weight: 600; }
    @media (prefers-color-scheme: dark) {
      .wm { fill: #F2EFE9; }
      .sub { fill: #D6CFC5; }
    }
  </style>

  <g transform="translate(10 16)">
    <rect x="0" y="0" width="80" height="80" rx="18" fill="#E89B5C"/>
    <svg x="8" y="8" width="64" height="64" viewBox="0 0 512 512" aria-hidden="true">
      <path d="M0 0 C1.12253174 0.60674561 2.24506348 1.21349121 3.40161133 1.83862305 C4.60123671 2.50149638 5.80069563 3.16467105 7 3.828125 C8.2530781 4.51094615 9.50658363 5.19298344 10.76049805 5.87426758 C19.43954441 10.60467019 28.04209882 15.46968405 36.625 20.37207031 C44.11181554 24.62973982 51.72001827 28.61652164 59.3762207 32.55932617 C67.15727669 36.58701916 74.77054396 40.87282474 82.375 45.22265625 C89.00689479 48.9981507 95.71576921 52.58461485 102.5 56.078125 C111.2384017 60.57792696 119.8079219 65.31647701 128.33544922 70.20288086 C136.29200814 74.73846093 144.38008376 78.98842586 152.55273438 83.12109375 C163.92830365 88.93473229 163.92830365 88.93473229 166 93.078125 C166.36519562 96.94919854 166.52941009 99.2564021 164.3918457 102.57421875 C161.61635408 105.47974514 158.98972444 106.99160048 155.41796875 108.828125 C154.77506393 109.16351791 154.13215912 109.49891083 153.46977234 109.84446716 C151.38070333 110.93235846 149.28419859 112.00502446 147.1875 113.078125 C144.28480519 114.58419688 141.38640199 116.09842997 138.48828125 117.61328125 C137.76600342 117.98961197 137.04372559 118.36594269 136.29956055 118.75367737 C128.78000388 122.68547969 121.41444739 126.87062392 114.08276367 131.14257812 C109.79810045 133.61380034 105.80971387 135.76136727 101 137.078125 C101 137.738125 101 138.398125 101 139.078125 C101.68650635 139.33609863 102.3730127 139.59407227 103.08032227 139.85986328 C106.39904158 141.24462868 109.54807625 142.87545815 112.71484375 144.5703125 C113.68124786 145.08373451 113.68124786 145.08373451 114.66717529 145.60752869 C116.75880578 146.71989638 118.84829216 147.83621462 120.9375 148.953125 C122.37929429 149.72228471 123.82110756 150.49140883 125.26293945 151.26049805 C128.84592734 153.17326061 132.42652221 155.09045357 136.00610352 157.00958252 C137.86083753 158.0035469 139.71640558 158.99593307 141.57226562 159.98779297 C144.6140567 161.6158902 147.65172075 163.25135145 150.6875 164.890625 C151.56978271 165.36290527 152.45206543 165.83518555 153.36108398 166.32177734 C164.01679002 172.11170503 164.01679002 172.11170503 166 176.078125 C166.34818798 179.76891755 166.50098025 182.20852576 164.625 185.46484375 C160.83431469 189.23860636 156.45463662 191.22923824 151.6875 193.578125 C143.50523099 197.72098055 135.45338222 202.01101263 127.5 206.578125 C118.97872825 211.45446389 110.3528604 216.06421998 101.625 220.55859375 C94.82489374 224.07875745 88.14630328 227.77636728 81.5 231.578125 C73.91549694 235.91654319 66.26810662 240.07773136 58.5 244.078125 C50.92316973 247.98188279 43.4598211 252.03177379 36.0625 256.265625 C27.13086311 261.35512148 18.14791446 266.34489757 9.09884644 271.22232056 C7.66782614 271.99585105 6.23916934 272.77377144 4.8130188 273.5562439 C2.80748297 274.65523426 0.79381242 275.73763792 -1.22265625 276.81640625 C-2.11659592 277.3122673 -2.11659592 277.3122673 -3.02859497 277.81814575 C-6.87007031 279.84367823 -9.68113899 280.65061528 -14 280.078125 C-17.07006836 278.81567383 -17.07006836 278.81567383 -20.33984375 277.03515625 C-20.93416702 276.71565506 -21.5284903 276.39615387 -22.14082336 276.06697083 C-24.07988693 275.02027118 -26.00854449 273.95582034 -27.9375 272.890625 C-29.29800873 272.15127147 -30.65901762 271.41283762 -32.02050781 270.67529297 C-40.71054819 265.95248695 -49.32381541 261.09644021 -57.90673828 256.18188477 C-72.69560727 247.76546583 -87.7786817 239.68878415 -103 232.078125 C-105.40036256 233.07639494 -105.40036256 233.07639494 -108.109375 234.62109375 C-109.16406982 235.1948877 -110.21876465 235.76868164 -111.30541992 236.35986328 C-113.01048706 237.30321533 -113.01048706 237.30321533 -114.75 238.265625 C-115.92188244 238.90681786 -117.09416837 239.54727379 -118.2668457 240.18701172 C-120.6699727 241.49954617 -123.07058839 242.81650899 -125.46923828 244.13720703 C-128.76378452 245.95036058 -132.06618673 247.74875746 -135.37109375 249.54296875 C-146.73872441 255.71511455 -146.73872441 255.71511455 -158 262.078125 C-151.50667212 266.26132662 -144.81476466 269.94680356 -138 273.578125 C-136.26154518 274.50983063 -134.52309328 275.44154179 -132.78486633 276.37367249 C-131.00981797 277.32523772 -129.23421921 278.27576883 -127.45849609 279.22607422 C-114.37515227 286.23230366 -101.32995817 293.28805753 -88.4375 300.640625 C-79.93737611 305.4873839 -71.33176822 310.07457314 -62.63354492 314.55444336 C-55.74842528 318.11862252 -48.98404162 321.86194336 -42.25 325.703125 C-39.42082655 327.30779193 -36.59080072 328.91094056 -33.76025391 330.51318359 C-31.91939068 331.55687131 -30.08051831 332.6040783 -28.24365234 333.65478516 C-25.65253104 335.12906806 -23.04774535 336.57554252 -20.4375 338.015625 C-19.67018555 338.45922363 -18.90287109 338.90282227 -18.11230469 339.35986328 C-17.39333008 339.75028809 -16.67435547 340.14071289 -15.93359375 340.54296875 C-15.31540771 340.889646 -14.69722168 341.23632324 -14.06030273 341.59350586 C-9.11085418 342.75770249 -4.08227086 339.1991945 0.1484375 336.91796875 C0.71855057 336.61178619 1.28866364 336.30560364 1.87605286 335.99014282 C3.08743886 335.33847459 4.29762655 334.68457452 5.50668335 334.02859497 C7.39248642 333.00614416 9.28236536 331.99157734 11.1730957 330.97827148 C16.52747338 328.10031773 21.86153446 325.20287799 27.08203125 322.0859375 C27.79375488 321.66449463 28.50547852 321.24305176 29.23876953 320.80883789 C30.48355259 320.06262304 31.71886436 319.3002174 32.94091797 318.51733398 C37.51668365 315.77442487 41.80150728 315.34623279 47 316.078125 C50.40066339 318.20353962 50.88251741 319.6473555 51.9375 323.515625 C52.00964573 327.62793186 51.423623 328.83131251 49 332.078125 C46.45410156 333.81640625 46.45410156 333.81640625 43.390625 335.390625 C42.25391357 335.98520508 41.11720215 336.57978516 39.94604492 337.19238281 C38.71405087 337.82100454 37.48203542 338.44958435 36.25 339.078125 C33.70658946 340.40044263 31.16796708 341.73185392 28.62890625 343.0625 C27.98854935 343.39642761 27.34819244 343.73035522 26.68843079 344.07440186 C19.47735341 347.84626056 12.42036753 351.8833171 5.37402344 355.953125 C2.92941343 357.35468936 0.47455136 358.73022043 -2 360.078125 C-2.6398584 360.42681641 -3.2797168 360.77550781 -3.93896484 361.13476562 C-8.36415495 363.30992148 -11.28110177 363.3791998 -16 362.078125 C-19.42782769 360.52323409 -22.67205587 358.69643725 -25.9375 356.828125 C-27.90458641 355.72851972 -29.87204756 354.62958459 -31.83984375 353.53125 C-32.8541748 352.96083984 -33.86850586 352.39042969 -34.91357422 351.80273438 C-39.91398664 349.00864219 -44.95798272 346.29618035 -50 343.578125 C-58.5815199 338.93633111 -67.15165892 334.27410947 -75.71313477 329.59545898 C-80.4362384 327.01603156 -85.16458115 324.44694749 -89.90234375 321.89453125 C-99.61856018 316.65756163 -109.29256771 311.36898834 -118.875 305.890625 C-127.7857985 300.80165441 -136.81452083 295.96428059 -145.89532471 291.18838501 C-167.21226239 279.97614611 -167.21226239 279.97614611 -177.5 274.203125 C-178.35352051 273.73382568 -179.20704102 273.26452637 -180.08642578 272.78100586 C-181.23473877 272.12757202 -181.23473877 272.12757202 -182.40625 271.4609375 C-183.05916016 271.09371582 -183.71207031 270.72649414 -184.38476562 270.34814453 C-186.35285287 268.80068537 -187.08216058 267.38885355 -188 265.078125 C-188.15234375 263.078125 -188.15234375 263.078125 -187.9375 261.078125 C-187.88464844 260.418125 -187.83179688 259.758125 -187.77734375 259.078125 C-185.84293346 254.10114978 -179.79989148 251.72987833 -175.28515625 249.390625 C-174.64088684 249.05108292 -173.99661743 248.71154083 -173.33282471 248.36170959 C-171.24515883 247.26246145 -169.15385728 246.17033099 -167.0625 245.078125 C-164.17061125 243.55838602 -161.28061603 242.03506272 -158.390625 240.51171875 C-157.31552422 239.94595375 -157.31552422 239.94595375 -156.21870422 239.36875916 C-148.97730414 235.55252783 -141.7976092 231.6274831 -134.63891602 227.65820312 C-130.82667562 225.55729555 -127.11354396 223.54425574 -123 222.078125 C-125.59832254 219.08668368 -128.59587051 217.53773116 -132.08203125 215.70703125 C-132.68451187 215.38845154 -133.28699249 215.06987183 -133.9077301 214.74163818 C-135.20153978 214.05818637 -136.49664431 213.37718122 -137.79290771 212.69839478 C-140.51286386 211.27380654 -143.22623849 209.8368975 -145.94000244 208.40055847 C-147.31285608 207.67406105 -148.68602626 206.94816147 -150.05950928 206.22285461 C-156.18686601 202.98614748 -162.28880797 199.70412981 -168.375 196.390625 C-169.23971924 195.92277588 -170.10443848 195.45492676 -170.99536133 194.97290039 C-173.34175263 193.69387434 -175.67486801 192.39536061 -178 191.078125 C-178.75958008 190.64935059 -179.51916016 190.22057617 -180.30175781 189.77880859 C-181.01944336 189.3555127 -181.73712891 188.9322168 -182.4765625 188.49609375 C-183.10900879 188.12637451 -183.74145508 187.75665527 -184.39306641 187.37573242 C-186.36469147 185.7836347 -187.11671195 184.44389556 -188 182.078125 C-187.86522637 178.3044633 -187.74374109 175.94613413 -185.24951172 173.03515625 C-182.9654426 171.04806074 -180.80446228 169.6807175 -178.1328125 168.265625 C-177.17544189 167.75338379 -176.21807129 167.24114258 -175.23168945 166.71337891 C-174.20648193 166.17374512 -173.18127441 165.63411133 -172.125 165.078125 C-169.95420498 163.91968693 -167.78363714 162.76082308 -165.61328125 161.6015625 C-164.51193848 161.01600586 -163.4105957 160.43044922 -162.27587891 159.82714844 C-157.26902261 157.15393943 -152.29061736 154.42937147 -147.3125 151.703125 C-137.47325882 146.31686425 -137.47325882 146.31686425 -132.7734375 143.84375 C-131.84857544 143.35527588 -131.84857544 143.35527588 -130.9050293 142.85693359 C-129.32856263 142.02735583 -127.74843834 141.20473847 -126.16796875 140.3828125 C-123.86928102 139.26315219 -123.86928102 139.26315219 -123 137.078125 C-123.68723145 136.81942627 -124.37446289 136.56072754 -125.08251953 136.29418945 C-128.38575603 134.91733414 -131.52484057 133.30183093 -134.6796875 131.62109375 C-135.32126801 131.28150131 -135.96284851 130.94190887 -136.62387085 130.59202576 C-138.70930332 129.48643389 -140.79235605 128.37645985 -142.875 127.265625 C-143.93914124 126.69929352 -143.93914124 126.69929352 -145.02478027 126.121521 C-154.48943508 121.08136958 -163.91001459 115.97150117 -173.25 110.703125 C-174.18827637 110.17485107 -175.12655273 109.64657715 -176.09326172 109.10229492 C-184.40845181 104.3706484 -184.40845181 104.3706484 -187 102.078125 C-188.6220608 95.37360703 -188.6220608 95.37360703 -186.83496094 91.65185547 C-184.65199683 88.59001305 -182.75499521 87.48723632 -179.42578125 85.765625 C-177.73026123 84.87484253 -177.73026123 84.87484253 -176.00048828 83.96606445 C-174.77120292 83.33666524 -173.54187237 82.70735426 -172.3125 82.078125 C-171.04334103 81.41577434 -169.77495749 80.75193586 -168.50732422 80.08666992 C-165.92075618 78.7302435 -163.33133486 77.37952171 -160.73974609 76.03271484 C-155.33358872 73.21600179 -149.97906968 70.30481491 -144.625 67.390625 C-143.64700439 66.86017578 -142.66900879 66.32972656 -141.66137695 65.78320312 C-134.19541039 61.73378111 -126.73862093 57.66755397 -119.28540039 53.59472656 C-114.56282453 51.01547034 -109.83493869 48.44668881 -105.09765625 45.89453125 C-95.151878 40.53377211 -85.25144107 35.11463101 -75.4375 29.515625 C-66.9477994 24.67460616 -58.35418902 20.08964282 -49.66430664 15.61938477 C-41.46890796 11.38062804 -33.44062408 6.87287097 -25.44726562 2.265625 C-24.0927832 1.48832031 -24.0927832 1.48832031 -22.7109375 0.6953125 C-21.91993652 0.23753418 -21.12893555 -0.22024414 -20.31396484 -0.69189453 C-12.71975018 -4.72857458 -7.5994613 -4.14853405 0 0 Z M-18.484375 19.33984375 C-19.44895126 19.85245758 -19.44895126 19.85245758 -20.43301392 20.37542725 C-22.54219568 21.49903929 -24.6461694 22.63202941 -26.75 23.765625 C-28.21944058 24.55174405 -29.68900542 25.33763086 -31.15869141 26.12329102 C-40.19960982 30.96918891 -49.15480388 35.94916002 -58.05371094 41.05151367 C-67.32916309 46.33630753 -76.77762433 51.28243476 -86.22616577 56.24807739 C-96.22079841 61.50390766 -106.1125659 66.89561951 -115.90942383 72.51416016 C-123.5354406 76.86851516 -131.29671348 80.93067275 -139.10058594 84.95556641 C-145.86767839 88.45517407 -152.49595154 92.10575992 -159 96.078125 C-156.59148203 98.77243315 -154.04570925 100.28970024 -150.86328125 101.9765625 C-149.82341064 102.53158447 -148.78354004 103.08660645 -147.7121582 103.65844727 C-146.590271 104.25069092 -145.46838379 104.84293457 -144.3125 105.453125 C-142.54038194 106.39819732 -140.76826812 107.34327778 -138.99650574 108.28901672 C-137.17819285 109.25887051 -135.35873928 110.22655566 -133.5390625 111.19384766 C-128.28556519 113.98846988 -123.04683879 116.81030425 -117.8125 119.640625 C-116.83007324 120.17147705 -115.84764648 120.7023291 -114.83544922 121.24926758 C-107.98787989 124.96367124 -101.20433998 128.78149691 -94.4375 132.640625 C-85.93452999 137.48900676 -77.3260584 142.0777816 -68.62475586 146.55883789 C-61.82459568 150.07875095 -55.14664134 153.77713705 -48.5 157.578125 C-40.5267305 162.12839453 -32.49898446 166.55207223 -24.375 170.828125 C-23.40884766 171.34181641 -22.44269531 171.85550781 -21.44726562 172.38476562 C-20.54427734 172.85591797 -19.64128906 173.32707031 -18.7109375 173.8125 C-17.91993652 174.22725586 -17.12893555 174.64201172 -16.31396484 175.06933594 C-12.6143823 176.68219467 -10.27760752 177.55930808 -6.39477539 176.09692383 C-5.47172607 175.58154053 -4.54867676 175.06615723 -3.59765625 174.53515625 C-2.55399902 173.9620874 -1.5103418 173.38901855 -0.43505859 172.79858398 C0.67788574 172.16895752 1.79083008 171.53933105 2.9375 170.890625 C4.10778797 170.24217351 5.27886053 169.59513615 6.45068359 168.94946289 C8.83521726 167.63318805 11.2154545 166.30962471 13.59228516 164.97949219 C18.41648917 162.28778128 23.27090565 159.65289588 28.125 157.015625 C29.91947466 156.03552934 31.7137443 155.05505824 33.5078125 154.07421875 C39.33071471 150.89437316 45.16482293 147.73537426 51 144.578125 C59.58073831 139.93487729 68.15165193 135.27411329 76.71313477 130.59545898 C81.4362384 128.01603156 86.16458115 125.44694749 90.90234375 122.89453125 C102.17720468 116.81754753 113.39180538 110.65353571 124.51538086 104.30297852 C128.9583478 101.77082744 133.39219319 99.2978326 138 97.078125 C134.91874325 94.63172999 131.73179943 92.76675649 128.2578125 90.92578125 C127.12053711 90.32040527 125.98326172 89.7150293 124.81152344 89.09130859 C124.21078003 88.77345398 123.61003662 88.45559937 122.99108887 88.12811279 C119.81071775 86.44513954 116.63629058 84.7510097 113.4609375 83.05859375 C112.82240845 82.71866394 112.18387939 82.37873413 111.52600098 82.02850342 C105.91442601 79.03905394 100.32728892 76.0060654 94.75 72.953125 C89.21207066 69.92181597 83.6713769 66.89656421 78.11328125 63.90234375 C68.16199745 58.53949707 58.25650803 53.11752178 48.4375 47.515625 C39.94959978 42.67563278 31.35949337 38.0879553 22.66870117 33.6237793 C14.39814909 29.3509569 6.31106227 24.78179413 -1.72851562 20.08984375 C-2.63794922 19.56519531 -3.54738281 19.04054688 -4.484375 18.5 C-5.28584961 18.03174805 -6.08732422 17.56349609 -6.91308594 17.08105469 C-11.4153105 14.91737447 -14.49278947 17.18181413 -18.484375 19.33984375 Z M-110.95703125 152.59375 C-111.99474419 153.14505081 -111.99474419 153.14505081 -113.05342102 153.70748901 C-115.30973705 154.90831184 -117.56114585 156.11802884 -119.8125 157.328125 C-121.35442338 158.1513128 -122.89657918 158.97406542 -124.43896484 159.79638672 C-136.33394705 166.14716918 -148.19142803 172.56802148 -160 179.078125 C-156.80775919 181.62940977 -153.47064524 183.5165159 -149.85546875 185.4140625 C-148.62051038 186.06605476 -147.38556632 186.71807413 -146.15063477 187.37011719 C-145.50458282 187.70958374 -144.85853088 188.04905029 -144.19290161 188.39880371 C-134.06171146 193.72518293 -123.99591831 199.13916792 -114.0625 204.828125 C-105.67985284 209.62387113 -97.18780431 214.14744835 -88.60351562 218.57055664 C-82.00131451 221.98939422 -75.51411656 225.57134306 -69.0625 229.265625 C-58.27967193 235.43562014 -47.33562045 241.27749628 -36.35180664 247.07885742 C-35.38124077 247.59173561 -35.38124077 247.59173561 -34.3910675 248.11497498 C-33.11470906 248.78805167 -31.83728807 249.45911771 -30.5587616 250.12806702 C-27.44885074 251.75954666 -24.36933945 253.42522918 -21.32519531 255.17675781 C-20.17889648 255.82741211 -19.03259766 256.47806641 -17.8515625 257.1484375 C-16.84174316 257.73641113 -15.83192383 258.32438477 -14.79150391 258.93017578 C-11.54157419 260.26664329 -10.28270072 260.2142668 -7 259.078125 C-4.63866929 257.97683111 -4.63866929 257.97683111 -2.2890625 256.55859375 C-1.38607422 256.03716797 -0.48308594 255.51574219 0.44726562 254.97851562 C1.41341797 254.41326172 2.37957031 253.84800781 3.375 253.265625 C11.32934069 248.68493484 19.33496639 244.27172113 27.5 240.078125 C35.26864966 236.07883631 42.91554646 231.91651487 50.5 227.578125 C58.08450396 223.23970629 65.73190076 219.07853459 73.5 215.078125 C82.06533754 210.66486721 90.46957972 206.02809375 98.83227539 201.2434082 C111.7302094 193.8997137 124.87882182 187.01216816 138 180.078125 C135.05381986 177.75235193 132.04583546 175.9348646 128.73046875 174.1796875 C127.68729492 173.62369873 126.64412109 173.06770996 125.56933594 172.49487305 C124.45333008 171.90359619 123.33732422 171.31231934 122.1875 170.703125 C115.20193922 166.9843873 108.23939869 163.24744745 101.37890625 159.30078125 C100.34548096 158.7063623 99.31205566 158.11194336 98.24731445 157.49951172 C96.2895203 156.36696679 94.33600996 155.226975 92.38745117 154.07861328 C91.05870972 153.31073486 91.05870972 153.31073486 89.703125 152.52734375 C88.93645508 152.07705811 88.16978516 151.62677246 87.37988281 151.1628418 C83.29771573 149.302248 80.38211988 148.56715454 76.09765625 150.15112305 C75.09605469 150.70840088 74.09445312 151.26567871 73.0625 151.83984375 C71.36625488 152.76724365 71.36625488 152.76724365 69.63574219 153.71337891 C68.42367989 154.39719827 67.21176941 155.08128677 66 155.765625 C64.73946891 156.46168727 63.47806421 157.15616967 62.21582031 157.84912109 C59.66842135 159.25056876 57.12606284 160.66052483 54.58789062 162.07861328 C50.53933025 164.33917143 46.46739288 166.5556928 42.39233398 168.76806641 C39.74441403 170.20615876 37.1003257 171.65108204 34.45703125 173.09765625 C27.43842366 176.93497436 20.40776631 180.75019124 13.36669922 184.54614258 C9.16051772 186.814563 4.9597236 189.08516185 0.80859375 191.453125 C-0.32449219 192.0925 -1.45757812 192.731875 -2.625 193.390625 C-3.54539063 193.92300781 -4.46578125 194.45539063 -5.4140625 195.00390625 C-8.5904825 196.32341607 -10.56574705 196.36343454 -14 196.078125 C-16.39532829 195.08113498 -18.52504392 194.06573848 -20.77734375 192.81640625 C-21.73568871 192.30372444 -21.73568871 192.30372444 -22.71339417 191.78068542 C-24.79491083 190.66280158 -26.86610351 189.52713501 -28.9375 188.390625 C-30.3914597 187.60460359 -31.84589179 186.81945538 -33.30078125 186.03515625 C-42.31628352 181.15964426 -51.25254351 176.14859327 -60.15112305 171.06298828 C-68.05403851 166.56534831 -76.03818915 162.22587267 -84.05688477 157.93896484 C-85.51099683 157.16099951 -86.96397495 156.38091074 -88.41577148 155.59863281 C-90.44569719 154.5059386 -92.47990517 153.42169645 -94.515625 152.33984375 C-95.12702332 152.00929489 -95.73842163 151.67874603 -96.36834717 151.33818054 C-102.43048371 148.14300162 -105.24413797 149.50788858 -110.95703125 152.59375 Z " fill="#000000" transform="translate(230,48.921875)"/>
      <path d="M0 0 C3.87072191 1.59009769 7.4404256 3.60020289 11.0625 5.6875 C12.11179687 6.27402344 13.16109375 6.86054688 14.2421875 7.46484375 C17.50449086 9.29329641 20.75295323 11.14461525 24 13 C25.94599503 14.10135582 27.89258728 15.20165726 29.83984375 16.30078125 C32.66971145 17.89908741 35.49847808 19.49913402 38.32324219 21.10644531 C46.4029284 25.69686093 54.56247867 30.13145411 62.7578125 34.51171875 C65.51470027 35.99121039 68.26014101 37.48922735 71 39 C71.9286084 39.5067627 72.8572168 40.01352539 73.81396484 40.53564453 C75.14935303 41.29337158 75.14935303 41.29337158 76.51171875 42.06640625 C77.30408936 42.51056885 78.09645996 42.95473145 78.9128418 43.41235352 C81.49205133 45.37429053 82.64289674 47.05827596 84 50 C84.37231445 52.86816406 84.37231445 52.86816406 84.36328125 56.015625 C84.36432861 57.17570068 84.36537598 58.33577637 84.36645508 59.53100586 C84.3486499 60.75827393 84.33084473 61.98554199 84.3125 63.25 C84.30049561 64.51400635 84.28849121 65.7780127 84.27612305 67.08032227 C83.67068238 107.3305331 69.88434691 145.76650724 40.80224609 174.31835938 C29.90116336 184.48994674 13.23736071 197.06812034 -2 199 C-7.76495066 198.61208924 -12.38546619 197.37670253 -17.625 195 C-18.65814331 194.53533325 -18.65814331 194.53533325 -19.7121582 194.0612793 C-32.58627616 188.08881126 -43.02597182 180.02841961 -53 170 C-54.21816406 168.78183594 -54.21816406 168.78183594 -55.4609375 167.5390625 C-80.71495019 140.86728068 -92.3787998 103.14816239 -92.37060547 67.04394531 C-92.37506877 64.84105902 -92.41182985 62.64004632 -92.44921875 60.4375 C-92.45507382 59.01823587 -92.45905196 57.59896246 -92.4609375 56.1796875 C-92.46915527 54.91882324 -92.47737305 53.65795898 -92.48583984 52.35888672 C-91.90603841 48.35039016 -90.86875128 46.81544939 -88 44 C-85.70776367 42.4453125 -85.70776367 42.4453125 -83.16796875 41.125 C-81.74097656 40.36993164 -81.74097656 40.36993164 -80.28515625 39.59960938 C-79.26292969 39.07173828 -78.24070312 38.54386719 -77.1875 38 C-75.00288135 36.84568761 -72.81931223 35.68938706 -70.63671875 34.53125 C-69.52731934 33.94472656 -68.41791992 33.35820312 -67.27490234 32.75390625 C-62.30000744 30.08955222 -57.39989305 27.29920917 -52.5 24.5 C-41.62082073 18.30646845 -30.6410576 12.30479202 -19.59082031 6.421875 C-17.90034724 5.49412197 -16.23095576 4.52655033 -14.58886719 3.515625 C-9.8063669 0.60400447 -5.6866123 -1.38902709 0 0 Z M-7.5859375 19.89599609 C-8.50632812 20.43305176 -9.42671875 20.97010742 -10.375 21.5234375 C-11.42872803 22.12478516 -12.48245605 22.72613281 -13.56811523 23.34570312 C-14.70063721 24.01537109 -15.83315918 24.68503906 -17 25.375 C-18.19035216 26.06121822 -19.3818628 26.74543039 -20.57446289 27.42773438 C-23.09008458 28.8681655 -25.6010427 30.31631528 -28.10986328 31.76855469 C-34.49489977 35.44877552 -40.97312717 38.96179148 -47.4375 42.5 C-61.49271228 49.16967381 -61.49271228 49.16967381 -74 58 C-76.94757112 91.50405839 -66.34078474 124.67074911 -45.5 150.8125 C-35.02435126 163.14847946 -21.96307413 175.32887144 -6 180 C5.05864174 179.50409678 14.84758014 171.97729627 23 165 C23.78761719 164.35675781 24.57523437 163.71351563 25.38671875 163.05078125 C49.14075005 142.87663535 63.12595496 111.0167463 65.69140625 80.2890625 C65.74055176 79.59586914 65.78969727 78.90267578 65.84033203 78.18847656 C65.95183134 76.66022004 66.08474509 75.13344168 66.23388672 73.60839844 C66.46217143 71.17690083 66.61518988 68.75079396 66.75 66.3125 C66.82645752 65.56991943 66.90291504 64.82733887 66.98168945 64.06225586 C67.05370706 61.7018586 66.9321125 60.17662546 66 58 C63.00434696 55.36620533 59.55611968 53.76431417 56 52 C53.87226218 50.82106399 51.74875259 49.63447365 49.62890625 48.44140625 C47.27443171 47.1465785 44.91900847 45.85360931 42.5625 44.5625 C40.00079921 43.1558622 37.43979349 41.74796203 34.87890625 40.33984375 C34.23031647 39.98341797 33.58172668 39.62699219 32.91348267 39.25976562 C28.35838595 36.75423329 23.81490688 34.22853637 19.27734375 31.69140625 C18.66041153 31.34684891 18.04347931 31.00229156 17.40785217 30.64729309 C14.45958377 29.00061906 11.51285787 27.35136164 8.56860352 25.69750977 C7.51471436 25.10897217 6.4608252 24.52043457 5.375 23.9140625 C4.45460938 23.3979541 3.53421875 22.8818457 2.5859375 22.35009766 C1.30589844 21.68179932 1.30589844 21.68179932 0 21 C-0.825 20.55785156 -1.65 20.11570312 -2.5 19.66015625 C-5.0338124 18.74245619 -5.0338124 18.74245619 -7.5859375 19.89599609 Z " fill="#000000" transform="translate(386,268)"/>
      <path d="M0 0 C3.63614014 2.49984634 4.77563041 4.00903433 5.75 8.3125 C4.98636676 12.06703011 4.5505819 12.86119019 2.10498047 15.55273438 C1.46848572 16.25398438 0.83199097 16.95523437 0.1762085 17.67773438 C-6.47439525 24.77469613 -13.2704882 31.72738183 -20.10157585 38.65001678 C-22.7651089 41.34947376 -25.41893373 44.05715944 -28.05224609 46.78613281 C-30.6210378 49.44787212 -33.21137909 52.08674911 -35.81830215 54.71113586 C-36.80127723 55.70814995 -37.77649329 56.71287988 -38.74337387 57.72550964 C-47.20664734 66.56989722 -47.20664734 66.56989722 -52.78540039 66.921875 C-57.23961094 66.36922934 -60.08721651 64.20868288 -63.12890625 61.03125 C-63.6488768 60.51751831 -64.16884735 60.00378662 -64.70457458 59.4744873 C-65.79169229 58.38910256 -66.86771988 57.29250606 -67.93286133 56.18554688 C-69.56095665 54.50159629 -71.22969787 52.86791371 -72.90820312 51.234375 C-73.96366959 50.16936735 -75.01650039 49.10173981 -76.06640625 48.03125 C-76.56314346 47.54756958 -77.05988068 47.06388916 -77.57167053 46.56555176 C-80.24088499 43.7281549 -81.31705406 41.62894372 -81.39819336 37.81054688 C-81 34 -81 34 -79.5625 31 C-76.39271705 28.52602306 -74.48331442 28.04286203 -70.50390625 28.24609375 C-65.24901169 29.82830069 -61.78297194 34.21702806 -58 38 C-56.95792482 38.89523969 -55.90650421 39.77970564 -54.84643555 40.65356445 C-53.90711182 41.42788818 -52.96778809 42.20221191 -52 43 C-51.49301071 42.4907901 -50.98602142 41.9815802 -50.46366882 41.4569397 C-45.68436368 36.65759406 -40.90265172 31.86065838 -36.11822796 27.06641579 C-33.6586211 24.60159128 -31.19995278 22.13584557 -28.7434082 19.66796875 C-25.91894858 16.83056145 -23.09044938 13.99721192 -20.26171875 11.1640625 C-19.38037766 10.27756012 -18.49903656 9.39105774 -17.59098816 8.47769165 C-16.77036392 7.65699188 -15.94973969 6.83629211 -15.10424805 5.99072266 C-14.38254929 5.26680328 -13.66085052 4.54288391 -12.9172821 3.79702759 C-8.89396331 0.02605677 -5.39900085 -1.0083737 0 0 Z " fill="#000000" transform="translate(420,334)"/>
    </svg>
  </g>

  <text class="wm" x="112" y="55" font-size="40">Bomly</text>
  <text class="sub" x="114" y="84" font-size="19">SBOM analysis</text>
</svg>
